<?xml version="1.0" encoding="UTF-8"?>
<svg id="Camada_1" data-name="Camada 1" xmlns="http://www.w3.org/2000/svg" xmlns:xlink="http://www.w3.org/1999/xlink" viewBox="0 0 1080 1080">
  <defs>
    <style>
      .cls-1 {
        fill: #fff;
      }

      .cls-1, .cls-2 {
        fill-rule: evenodd;
      }

      .cls-2 {
        fill: url(#Gradiente_sem_nome_4);
      }
    </style>
    <linearGradient id="Gradiente_sem_nome_4" data-name="Gradiente sem nome 4" x1="3251.42" y1="-5542.95" x2="3251.42" y2="-135.64" gradientTransform="translate(-77.77 1076.99) scale(.19)" gradientUnits="userSpaceOnUse">
      <stop offset="0" stop-color="#61fd7d"/>
      <stop offset="1" stop-color="#2bb826"/>
    </linearGradient>
  </defs>
  <g id="whatsapp">
    <path class="cls-2" d="M1058.24,791.55c0,5.65-.17,17.9-.51,27.36-.83,23.16-2.68,53.04-5.47,66.66-4.19,20.46-10.52,39.77-18.77,55.85-19.23,37.71-50.04,68.34-87.95,87.44-16.23,8.23-35.76,14.54-56.43,18.69-13.54,2.72-43.34,4.54-66.45,5.34-9.54.34-21.83.51-27.48.51l-510.44-.08c-5.68,0-17.98-.17-27.49-.51-23.27-.83-53.29-2.67-66.97-5.44-20.55-4.18-39.96-10.47-56.11-18.68-37.88-19.14-68.65-49.81-87.82-87.55-8.29-16.16-14.61-35.59-18.78-56.17-2.73-13.48-4.56-43.14-5.37-66.15-.34-9.46-.51-21.73-.51-27.35l.08-508.09c0-5.65.17-17.9.51-27.36.83-23.16,2.68-53.04,5.47-66.66,4.19-20.45,10.52-39.76,18.77-55.84,19.23-37.72,50.04-68.35,87.95-87.44,16.24-8.25,35.76-14.54,56.43-18.69,13.54-2.72,43.34-4.54,66.45-5.34,9.5-.34,21.83-.51,27.47-.51l510.44.08c5.68,0,17.98.17,27.49.51,23.27.83,53.29,2.67,66.97,5.44,20.56,4.17,39.94,10.48,56.09,18.68,37.89,19.14,68.66,49.81,87.84,87.55,8.29,16.16,14.6,35.59,18.78,56.17,2.73,13.48,4.56,43.14,5.37,66.15.34,9.47.51,21.73.51,27.36l-.08,508.07Z"/>
    <path class="cls-1" d="M814.63,265.66c-70.18-69.92-163.51-108.44-262.95-108.48-204.89,0-371.65,165.92-371.73,369.88-.08,64.91,17.03,128.69,49.62,184.91l-52.74,191.68,197.06-51.44c54.51,29.54,115.58,45.02,177.64,45.02h.15c204.87,0,371.64-165.94,371.73-369.89.04-98.84-38.59-191.77-108.78-261.68h0ZM551.68,834.77h-.13c-55.33,0-109.64-14.79-157.25-42.86l-11.28-6.66-116.93,30.54,31.21-113.45-7.34-11.65c-30.96-49-47.35-105.73-47.27-163.62.08-169.51,138.69-307.42,309.11-307.42,82.52.03,160.1,32.05,218.43,90.17,58.33,58.11,90.44,135.36,90.39,217.52-.07,169.53-138.66,307.45-308.96,307.45v-.02Z"/>
    <path class="cls-1" d="M427.05,706.22c2.62,1.57,7.99,1.57,20.32,1.56,52.31-.05,97.49-.2,129.63-.2,149.98,0,146.04-157.17,75.91-176.78,10.27-18.11,57.07-52.14,28.13-122.47-28.61-69.54-151.7-53.76-235.88-53.72-31.15,0-26.49,22.91-26.33,58.53.26,56.42.05,209.12,0,275.14,0,13.38,4.06,15.44,8.22,17.94ZM491.95,648.63c14.16,0,47.57,0,76.2-.05,32.43-.05,61.3-15.15,60.58-47.28-.53-30.27-20.76-40.2-48.84-42.97-26.75.26-57.33.26-87.94.26v90.04ZM491.95,497.79c56.41-.77,78.18,2.26,108.98-5.42,21.15-11.97,30.41-56.31.12-71.37-21.04-10.46-83.23-6.88-109.1-5.81v82.6Z"/>
  </g>
</svg>